<svg xmlns="http://www.w3.org/2000/svg" version="1.1" xmlns:xlink="http://www.w3.org/1999/xlink" xmlns:svgjs="http://svgjs.com/svgjs" width="695.000000pt" height="695.000000pt"><svg version="1.0" xmlns="http://www.w3.org/2000/svg" width="695.000000pt" height="695.000000pt" viewBox="0 0 695.000000 695.000000" preserveAspectRatio="xMidYMid meet">

<g transform="translate(0.000000,695.000000) scale(0.100000,-0.100000)" fill="#000000" stroke="none">
<path d="M3145 6795 c-599 -62 -1140 -268 -1629 -619 l-98 -71 591 -3 591 -2
0 -45 0 -45 -648 0 -648 0 -49 -45 -50 -44 923 -1 922 0 0 -45 0 -45 -968 0
-968 0 -44 -45 -44 -45 1222 0 1222 0 0 -50 0 -50 -1269 0 -1269 0 -86 -111
c-482 -620 -725 -1360 -703 -2144 14 -495 121 -931 337 -1370 225 -459 518
-824 922 -1148 733 -588 1702 -834 2652 -672 398 68 825 232 1176 451 l95 59
-493 3 -492 2 0 50 0 50 566 0 566 0 50 40 51 40 -827 0 -826 0 0 50 0 50 886
0 885 0 47 45 47 45 -1157 0 -1158 0 0 45 0 45 1205 0 1204 0 86 97 c465 522
751 1175 825 1888 15 140 15 497 1 640 -95 940 -567 1782 -1317 2346 -180 136
-328 226 -539 329 -336 165 -661 263 -1045 316 -160 21 -577 27 -745 9z m-617
-1393 c35 -15 75 -62 86 -98 6 -19 1 -22 -64 -33 -70 -11 -71 -11 -93 15 -43
50 -144 30 -168 -34 -6 -15 -9 -60 -7 -99 3 -62 7 -77 29 -99 52 -51 179 -37
179 20 0 24 -3 26 -50 26 l-50 0 0 50 0 50 120 0 121 0 -3 -107 -3 -107 -55
-28 c-79 -40 -165 -55 -247 -41 -84 15 -135 50 -168 117 -64 132 -29 289 80
356 64 39 220 46 293 12z m446 -123 c55 -15 113 -74 127 -129 39 -148 -94
-268 -254 -231 -96 22 -148 83 -149 175 -1 141 126 227 276 185z m462 -3 c19
-14 19 -15 -3 -59 -19 -40 -24 -43 -51 -39 -49 7 -66 -30 -70 -155 l-4 -103
-69 0 -69 0 0 180 0 180 65 0 c63 0 65 -1 65 -26 l0 -26 29 31 c32 34 74 41
107 17z m285 -15 c29 -21 29 -21 29 -1 0 18 6 20 65 20 l65 0 0 -197 c0 -180
-2 -201 -20 -231 -40 -65 -128 -91 -245 -72 -69 11 -109 44 -119 99 l-6 33 66
-7 c44 -4 72 -13 85 -26 10 -10 30 -19 43 -19 37 0 56 25 56 76 l0 45 -29 -22
c-37 -27 -114 -28 -149 -2 -61 45 -87 121 -72 205 20 110 144 163 231 99z
m546 6 c55 -29 93 -95 93 -162 l0 -35 -135 0 c-122 0 -135 -2 -135 -17 1 -53
72 -77 118 -40 15 12 123 10 135 -3 5 -4 -7 -24 -27 -43 -71 -71 -237 -76
-309 -9 -43 40 -59 79 -60 141 0 86 41 148 120 177 46 17 158 12 200 -9z m417
12 c55 -15 113 -74 127 -129 39 -148 -94 -268 -254 -231 -96 22 -148 83 -149
175 -1 141 126 227 276 185z m951 -11 c17 -9 38 -30 47 -46 l18 -30 -67 -7
c-48 -5 -68 -4 -71 5 -11 33 -92 32 -92 -1 0 -23 3 -24 100 -40 63 -10 80 -17
107 -44 65 -65 26 -157 -78 -185 -54 -15 -166 -7 -208 15 -28 14 -69 71 -58
81 2 2 32 7 66 10 56 6 63 5 77 -15 26 -37 110 -25 102 15 -2 15 -21 22 -87
36 -97 20 -123 35 -141 77 -23 56 7 112 75 137 50 18 168 14 210 -8z m-605
-99 c0 -61 5 -119 10 -130 13 -23 47 -25 72 -2 15 14 18 32 18 130 l0 113 70
0 70 0 0 -180 0 -180 -65 0 c-63 0 -65 1 -65 26 l0 26 -30 -25 c-77 -65 -196
-35 -214 54 -3 18 -6 87 -6 155 l0 124 70 0 70 0 0 -111z m-2572 -503 c49 -18
128 -69 114 -74 -6 -2 -32 6 -58 17 -80 36 -163 46 -254 32 -43 -6 -99 -19
-124 -27 -25 -9 -51 -14 -58 -11 -15 5 59 45 117 63 55 18 213 17 263 0z
m-433 -64 c-6 -5 -43 -33 -84 -62 -90 -66 -174 -165 -202 -239 -51 -138 -69
-359 -36 -457 19 -55 74 -116 122 -134 16 -6 55 -12 86 -12 87 -1 139 39 139
107 0 42 18 28 25 -19 9 -58 5 -75 -25 -97 -62 -46 -198 -43 -272 6 -92 61
-132 161 -132 330 0 92 4 124 27 195 50 160 154 297 272 358 56 29 101 42 80
24z m2475 -77 l0 -65 -75 0 -75 0 0 -185 0 -185 -80 0 -80 0 0 185 0 185 -75
0 -75 0 0 65 0 65 230 0 230 0 0 -65z m630 15 l0 -50 -65 0 -65 0 0 50 0 50
65 0 65 0 0 -50z m230 -200 l0 -250 -65 0 -65 0 0 250 0 250 65 0 65 0 0 -250z
m-2722 193 c46 -29 93 -76 115 -118 18 -35 22 -64 28 -220 5 -133 11 -192 24
-225 24 -64 24 -193 0 -244 -23 -47 -88 -91 -150 -101 -178 -26 -500 139 -637
327 l-17 23 -1 -35 c-1 -31 -4 -28 -21 30 -27 88 -29 228 -4 290 18 45 64 115
71 108 1 -2 -8 -35 -22 -73 -62 -171 -40 -254 105 -395 48 -47 113 -100 145
-119 82 -49 222 -99 298 -107 57 -6 73 -3 112 16 95 45 117 131 76 288 -26 97
-34 112 -61 112 -25 0 -29 -11 -19 -53 10 -48 -4 -38 -25 17 -23 60 -9 103 42
131 37 20 38 21 41 83 4 93 -19 154 -86 224 -57 60 -60 70 -14 41z m138 -55
c78 -72 104 -132 104 -241 0 -68 -19 -179 -32 -193 -2 -2 -4 52 -4 119 0 169
-21 233 -108 325 -57 59 -29 52 40 -10z m2044 -31 c32 -9 51 -21 67 -46 21
-30 23 -46 23 -147 0 -62 4 -124 10 -138 l10 -26 -66 0 c-57 0 -67 3 -71 20
-7 25 -9 25 -40 1 -32 -26 -105 -37 -152 -22 -42 12 -78 46 -81 76 -9 81 17
106 141 134 108 25 122 31 114 53 -13 33 -91 30 -112 -5 -6 -11 -21 -12 -65
-8 -68 8 -75 13 -60 45 29 65 162 94 282 63z m915 -9 c17 -9 38 -30 47 -46
l18 -30 -67 -7 c-48 -5 -68 -4 -71 5 -11 33 -92 32 -92 -1 0 -23 3 -24 100
-40 63 -10 80 -17 109 -46 30 -30 33 -38 28 -76 -11 -81 -94 -124 -219 -114
-80 7 -122 27 -144 68 -8 17 -14 33 -11 35 2 2 32 7 66 10 56 6 63 5 77 -15
26 -37 110 -25 102 15 -2 15 -21 22 -87 36 -97 20 -123 35 -141 77 -23 56 7
112 75 137 50 18 168 14 210 -8z m-605 -168 l0 -180 -65 0 -65 0 0 180 0 180
65 0 65 0 0 -180z m-2717 -91 c33 -9 38 -14 33 -32 -3 -12 -6 -29 -6 -39 0
-14 -9 -15 -62 -11 -35 3 -71 10 -80 15 -41 21 -3 78 52 78 14 0 42 -5 63 -11z
m312 -311 c33 -15 41 -48 20 -87 -31 -61 -87 -65 -150 -10 -43 39 -46 72 -7
93 33 18 102 20 137 4z m-552 -107 c73 -49 210 -120 277 -141 43 -14 96 -22
155 -23 75 -2 90 -5 93 -19 8 -40 -179 -54 -314 -24 -80 19 -126 37 -210 84
l-60 34 0 59 c1 32 5 59 9 59 5 0 27 -13 50 -29z m-382 -254 c-47 -129 -102
-200 -259 -338 -141 -124 -174 -158 -236 -239 -146 -190 -214 -385 -223 -640
-6 -162 6 -231 54 -328 34 -67 122 -150 205 -192 55 -28 59 -32 28 -27 -103
15 -242 122 -289 222 -103 219 -89 461 44 763 92 210 143 273 400 496 129 112
211 200 239 254 14 28 26 56 26 61 0 5 5 22 12 38 22 53 22 -11 -1 -70z m1449
-24 c31 -32 72 -78 92 -102 l35 -44 49 17 c76 27 168 30 253 9 81 -20 114 -47
39 -32 -114 22 -242 3 -315 -47 -44 -29 -34 -37 -147 109 -75 97 -76 98 -86
71 -25 -64 -22 -136 8 -222 16 -45 24 -81 18 -79 -6 2 -28 37 -50 78 -37 72
-38 76 -34 159 4 93 25 140 61 140 11 0 44 -25 77 -57z m865 32 c15 -14 25
-36 25 -53 0 -35 -36 -177 -54 -211 -12 -22 -13 -11 -8 87 4 97 3 112 -11 118
-22 8 -92 -34 -161 -97 -31 -28 -56 -46 -56 -41 0 29 159 193 205 212 30 13
34 12 60 -15z m-1534 -14 l23 -18 -30 -15 c-41 -21 -104 -32 -104 -18 0 21 21
51 43 60 33 13 43 12 68 -9z m139 -59 c43 -150 27 -311 -45 -457 l-45 -90 -11
-165 c-13 -192 -7 -295 26 -436 31 -131 59 -205 88 -232 12 -11 53 -35 90 -53
89 -42 107 -66 107 -138 0 -31 -4 -61 -8 -67 -16 -24 -53 -35 -100 -28 -37 5
-51 2 -61 -10 -16 -19 -40 -20 -76 -4 -29 13 -34 32 -6 23 25 -8 67 13 87 42
14 23 17 23 33 9 22 -20 65 -21 85 0 44 44 -7 105 -119 143 -79 27 -79 27
-111 88 -88 167 -127 468 -89 698 19 114 19 108 -10 89 -14 -9 -28 -15 -30
-13 -2 3 16 34 41 69 25 36 66 107 92 159 l47 94 0 126 c0 69 -4 144 -9 165
-11 51 9 41 24 -12z m-110 -4 c0 -51 -78 -79 -116 -41 -16 16 -15 18 17 26 22
6 35 5 37 -2 2 -6 10 -11 18 -11 8 0 11 6 7 16 -3 9 0 20 8 25 22 14 29 11 29
-13z m-1622 -55 c70 -53 122 -176 122 -291 0 -80 -24 -137 -106 -255 -90 -127
-109 -177 -109 -277 0 -81 4 -97 43 -175 3 -5 -4 -2 -14 7 -56 49 -85 167 -64
259 12 54 94 229 133 283 33 46 67 138 67 182 0 67 -27 140 -69 184 -39 41
-71 52 -71 25 0 -9 12 -38 26 -65 23 -43 26 -60 22 -118 -4 -71 -21 -113 -94
-232 -87 -142 -144 -314 -144 -438 0 -136 61 -307 154 -429 26 -35 89 -102
139 -149 101 -95 92 -96 -29 -6 -135 100 -225 211 -281 342 -26 62 -28 73 -28
220 0 131 4 167 23 234 30 104 80 212 137 292 98 140 104 176 50 290 -43 90
-45 118 -7 138 32 18 55 13 100 -21z m3072 16 c0 -30 -31 -163 -40 -173 -9 -9
-100 39 -100 52 0 4 25 38 56 75 56 68 84 83 84 46z m1585 -7 c240 -67 420
-225 530 -466 53 -118 44 -123 -26 -15 -96 146 -254 292 -394 362 -203 101
-474 117 -701 41 -100 -33 -164 -63 -304 -144 -282 -163 -405 -173 -519 -44
-46 52 -47 69 -2 36 16 -12 58 -31 92 -43 112 -37 163 -23 429 123 141 78 256
124 369 148 129 28 134 28 301 25 115 -2 173 -8 225 -23z m-2369 -264 c-49
-158 -52 -261 -9 -281 23 -10 23 -12 8 -24 -23 -16 -12 -43 17 -43 17 0 19 -3
10 -12 -17 -17 -15 -28 4 -28 10 0 14 -6 11 -14 -8 -20 55 -98 106 -132 35
-24 52 -28 103 -28 57 0 177 35 189 54 3 4 -15 20 -40 35 -41 26 -65 55 -47
55 5 0 35 -16 67 -36 72 -43 75 -42 174 51 86 82 154 181 178 260 l18 60 3
-46 c4 -59 -29 -158 -70 -213 -76 -99 -267 -245 -359 -272 -70 -21 -74 -29
-74 -144 0 -65 5 -85 32 -140 17 -36 48 -84 67 -107 20 -22 36 -44 36 -47 0
-12 -75 32 -115 67 -22 19 -54 61 -70 93 -25 50 -30 71 -30 134 0 41 4 88 8
103 7 25 4 29 -30 43 -72 28 -88 39 -147 97 l-59 59 -39 -18 c-40 -18 -67 -10
-34 10 52 31 59 41 47 64 -9 17 -21 22 -51 22 -49 0 -52 15 -5 24 19 4 35 11
35 16 0 21 -40 48 -78 55 -48 8 -80 35 -41 35 13 0 41 -4 62 -9 l37 -9 0 42
c0 23 9 74 20 114 22 79 83 219 88 203 2 -6 -8 -48 -22 -93z m2324 71 c57 -13
178 -70 210 -98 21 -19 22 -22 5 -16 -331 116 -546 67 -643 -145 -33 -73 -40
-181 -18 -270 45 -180 169 -339 337 -433 48 -27 95 -55 105 -63 18 -13 17 -14
-11 -8 -61 13 -185 66 -242 103 -201 130 -318 371 -283 580 45 268 267 411
540 350z m-2214 -175 c19 -20 32 -40 29 -45 -4 -5 -26 -9 -49 -9 -33 0 -50 6
-71 26 l-29 27 23 18 c34 28 60 23 97 -17z m379 16 c35 -13 28 -30 -26 -58
-36 -18 -54 -21 -87 -16 -51 8 -53 24 -9 58 34 27 77 33 122 16z m105 -195 c0
-20 -182 -60 -208 -46 -14 8 -12 11 13 16 17 4 53 13 80 21 50 13 115 18 115
9z m-337 -16 c20 -5 37 -14 37 -19 0 -4 -21 -29 -46 -54 -47 -48 -48 -51 -28
-113 4 -14 1 -13 -15 6 -12 13 -21 31 -21 40 0 9 -14 36 -30 60 -29 43 -37 71
-23 84 10 10 83 8 126 -4z m-1149 -100 c-8 -46 -18 -163 -21 -260 -5 -155 -3
-188 16 -285 39 -192 33 -180 92 -188 29 -4 69 -16 90 -27 98 -50 107 -219 12
-219 -19 0 -43 5 -53 10 -14 8 -29 5 -60 -11 -46 -24 -100 -21 -131 7 -15 13
-23 14 -54 4 -30 -10 -40 -9 -61 5 -14 9 -30 27 -36 41 -14 30 -22 30 -36 -1
-11 -24 -32 -34 -32 -15 0 18 -63 81 -109 108 -41 24 -55 27 -132 25 -72 -1
-247 -28 -326 -49 -38 -10 -25 11 20 33 68 34 126 50 222 62 75 10 103 10 162
-3 72 -15 144 -52 161 -82 9 -15 14 -16 41 -4 37 15 36 15 53 -35 11 -33 18
-41 42 -43 16 -2 40 2 53 9 20 11 26 10 46 -9 32 -30 75 -28 108 4 l27 26 40
-23 c34 -20 42 -21 56 -10 19 16 21 70 3 94 -13 18 -134 67 -166 67 -21 0 -33
22 -66 123 -69 216 -72 367 -11 572 33 113 55 169 63 162 1 -2 -4 -41 -13 -88z
m-615 60 c157 -33 243 -191 212 -387 -17 -113 -64 -201 -156 -295 -41 -42 -80
-77 -87 -77 -7 0 2 15 19 33 17 17 46 57 66 87 80 128 104 227 86 357 -15 108
-49 170 -114 206 -47 26 -56 27 -145 24 -76 -3 -108 -9 -160 -31 -36 -15 -74
-30 -85 -33 -37 -10 4 22 80 63 103 57 191 73 284 53z m2029 -48 c1 -1 2 -5 2
-11 0 -13 -85 -13 -133 1 -60 16 -35 25 50 18 43 -4 79 -8 81 -8z m2471 -435
c-41 -127 -115 -215 -266 -316 -160 -107 -450 -159 -823 -147 -179 5 -268 23
-435 87 -44 17 -141 47 -215 66 -146 38 -258 46 -341 24 -157 -43 -453 -193
-536 -273 -18 -17 -35 -28 -39 -25 -9 10 36 157 68 224 83 170 243 295 436
340 109 26 299 14 492 -31 506 -117 629 -140 820 -151 100 -6 126 -4 198 15
133 34 221 88 332 203 49 51 50 36 1 -24 -75 -93 -194 -168 -336 -209 -71 -21
-99 -24 -250 -23 -183 1 -194 3 -650 107 -259 60 -333 70 -463 65 -92 -4 -131
-10 -184 -30 -96 -36 -172 -84 -243 -153 -60 -59 -151 -182 -142 -191 3 -3 36
14 73 37 242 148 439 205 623 180 47 -7 165 -37 261 -67 257 -81 256 -81 370
-105 149 -31 407 -31 566 -1 180 35 328 93 455 178 153 101 236 270 241 488 2
62 3 45 6 -54 2 -128 0 -153 -19 -214z m-4249 -482 c61 -25 75 -59 38 -95 -22
-20 -28 -21 -183 -14 -87 3 -165 10 -173 14 -8 5 50 10 128 13 109 4 145 9
157 21 14 14 13 18 -11 42 -14 14 -26 28 -26 30 0 10 31 5 70 -11z"></path>
<path d="M2854 5169 c-13 -15 -19 -36 -19 -69 0 -59 24 -90 70 -90 39 0 54 16
62 64 11 68 -16 116 -66 116 -16 0 -36 -9 -47 -21z"></path>
<path d="M3646 5175 c-34 -34 -32 -116 4 -135 50 -27 90 3 90 68 0 67 -55 106
-94 67z"></path>
<path d="M4116 5189 c-14 -11 -26 -29 -26 -40 0 -17 7 -19 65 -19 74 0 83 13
40 55 -29 30 -45 31 -79 4z"></path>
<path d="M4564 5169 c-13 -15 -19 -36 -19 -69 0 -59 24 -90 70 -90 39 0 54 16
62 64 11 68 -16 116 -66 116 -16 0 -36 -9 -47 -21z"></path>
<path d="M4716 4242 c-57 -20 -76 -42 -57 -66 18 -21 64 -20 90 2 21 17 41 82
25 82 -5 -1 -31 -9 -58 -18z"></path>
</g>
</svg><style>@media (prefers-color-scheme: light) { :root { filter: none; } }
</style></svg>