<?xml version="1.0" standalone="no"?>
<!DOCTYPE svg PUBLIC "-//W3C//DTD SVG 20010904//EN"
 "http://www.w3.org/TR/2001/REC-SVG-20010904/DTD/svg10.dtd">
<svg version="1.0" xmlns="http://www.w3.org/2000/svg"
 width="1652.000000pt" height="663.000000pt" viewBox="0 0 1652.000000 663.000000"
 preserveAspectRatio="xMidYMid meet">

<g transform="translate(0.000000,663.000000) scale(0.100000,-0.100000)"
fill="#000000" stroke="none">
<path d="M3005 6280 c-364 -41 -696 -138 -1015 -296 -195 -97 -304 -162 -441
-263 l-83 -61 530 -2 529 -3 0 -40 0 -40 -585 -3 -585 -3 -45 -39 -45 -39 838
-1 838 0 -3 -37 -3 -38 -876 -3 -875 -2 -39 -40 -39 -40 1107 0 1107 0 0 -40
0 -40 -1143 0 -1144 0 -65 -82 c-354 -449 -565 -954 -639 -1528 -18 -135 -18
-571 -1 -700 96 -707 382 -1294 866 -1775 463 -460 1033 -747 1681 -847 189
-28 551 -35 753 -14 374 40 705 138 1046 310 78 39 179 96 226 126 l85 55
-443 3 -442 2 0 45 0 45 513 0 512 1 45 39 45 39 -752 1 -753 0 0 40 0 40 803
0 803 0 39 40 39 40 -1042 0 -1042 0 0 40 0 40 1084 0 1084 0 72 78 c170 183
330 421 455 677 159 322 250 627 290 970 20 171 20 539 0 709 -73 622 -344
1212 -769 1676 -465 506 -1077 833 -1761 941 -113 17 -192 22 -410 25 -148 1
-306 -1 -350 -6z m-565 -1936 c75 -43 74 -59 -2 -27 -54 23 -76 27 -158 26
-63 0 -118 -7 -162 -20 -38 -11 -68 -17 -68 -13 0 7 99 54 135 63 11 3 61 5
110 4 81 -2 97 -6 145 -33z m-440 -42 c-195 -133 -262 -230 -289 -419 -36
-245 22 -373 176 -391 74 -8 143 38 143 96 0 37 19 15 27 -31 4 -29 1 -40 -19
-60 -33 -33 -114 -50 -174 -37 -91 21 -127 52 -171 145 -25 55 -27 69 -27 180
0 104 4 130 27 195 53 147 140 254 251 309 65 33 96 40 56 13z m614 -101 c56
-51 70 -101 71 -256 1 -104 6 -155 20 -200 24 -79 24 -179 1 -228 -63 -130
-281 -118 -508 29 -100 64 -173 127 -188 163 -13 33 -31 34 -23 1 3 -11 1 -20
-4 -20 -16 0 -38 118 -38 200 1 82 28 162 68 197 20 18 20 17 13 -2 -38 -96
-48 -138 -49 -190 -2 -74 28 -130 118 -219 76 -75 156 -127 254 -165 182 -70
296 -44 332 77 11 38 10 55 -11 143 -17 70 -29 103 -42 110 -37 20 -45 -9 -23
-76 5 -12 -1 -9 -13 9 -44 63 -36 134 17 156 23 9 32 21 37 47 15 79 -27 196
-88 248 -15 13 -28 27 -28 31 0 9 49 -23 84 -55z m59 4 c83 -63 119 -175 98
-302 -19 -108 -28 -105 -28 10 0 137 -26 217 -88 282 -53 54 -45 58 18 10z
m-300 -281 c14 -4 17 -12 13 -27 -3 -12 -6 -29 -6 -38 0 -13 -8 -15 -54 -8
-99 13 -122 42 -61 77 18 11 62 9 108 -4z m255 -275 c17 -6 33 -17 36 -25 9
-24 -21 -83 -49 -96 -23 -10 -33 -9 -63 7 -19 11 -44 32 -55 47 -20 26 -20 28
-3 47 27 29 83 38 134 20z m-400 -151 c123 -71 190 -92 295 -93 74 0 87 -2 87
-17 0 -24 -52 -38 -139 -38 -102 0 -198 22 -284 65 -102 50 -103 51 -99 113
l4 53 26 -18 c15 -9 64 -39 110 -65z m-458 -235 c-45 -91 -84 -134 -283 -317
-205 -187 -298 -364 -333 -629 -16 -124 -9 -251 17 -327 34 -97 110 -180 214
-233 70 -36 26 -35 -50 2 -241 115 -314 421 -185 771 82 223 171 348 365 510
28 23 92 82 142 132 83 81 96 98 120 164 25 64 28 69 31 43 2 -21 -10 -59 -38
-116z m1317 50 c21 -21 59 -62 84 -92 40 -48 47 -53 65 -43 12 6 52 16 90 22
56 9 81 8 144 -5 41 -10 78 -20 82 -23 4 -4 -46 -7 -111 -7 -112 0 -120 -1
-179 -31 l-60 -32 -25 27 c-13 14 -48 58 -77 96 -29 39 -56 71 -60 73 -11 4
-20 -25 -26 -87 -6 -54 0 -81 42 -186 7 -19 7 -19 -13 -2 -11 10 -33 45 -48
79 -24 53 -27 70 -23 129 6 75 27 119 58 119 10 0 36 -17 57 -37z m797 15 c9
-12 16 -34 16 -48 0 -32 -24 -127 -44 -172 -14 -31 -14 -28 -9 57 9 139 -15
144 -146 35 -34 -28 -61 -47 -61 -42 0 15 132 153 165 174 40 24 61 23 79 -4z
m-1390 -4 c39 -15 8 -42 -66 -58 -34 -8 -38 14 -8 44 20 20 45 25 74 14z m145
-215 c1 -108 -22 -202 -66 -273 -31 -49 -43 -137 -44 -346 -1 -154 17 -263 62
-387 28 -75 42 -91 109 -120 30 -14 67 -36 83 -51 23 -22 27 -33 27 -84 0 -50
-3 -60 -25 -74 -18 -12 -35 -14 -62 -9 -26 5 -45 2 -69 -11 -27 -15 -37 -16
-58 -6 -35 16 -33 27 6 28 21 1 39 10 52 27 20 24 22 25 50 10 38 -20 76 -4
76 31 0 41 -40 76 -115 101 -65 21 -72 27 -97 72 -84 148 -122 449 -84 651 10
54 11 72 2 72 -7 0 -17 -5 -24 -12 -6 -6 -14 -10 -16 -7 -3 3 15 34 40 69 25
36 62 99 82 140 l37 74 0 154 0 155 17 -54 c11 -34 17 -89 17 -150z m-113 155
c-3 -9 -6 -20 -6 -25 0 -5 -11 -16 -25 -25 -21 -14 -30 -14 -55 -4 -39 16 -39
40 0 40 17 0 30 -4 30 -10 0 -5 5 -10 11 -10 6 0 9 6 6 14 -6 16 11 36 31 36
9 0 12 -6 8 -16z m1289 -111 c-9 -43 -20 -81 -24 -85 -7 -8 -91 38 -91 50 0 4
25 35 56 70 71 79 83 72 59 -35z m-2739 46 c49 -47 85 -129 91 -203 9 -109 -1
-145 -74 -253 -93 -138 -116 -191 -116 -272 0 -46 7 -81 22 -116 21 -48 21
-48 2 -31 -27 24 -61 117 -61 165 0 74 35 161 131 323 38 63 59 121 59 157 0
80 -67 201 -111 201 -25 0 -24 -11 6 -70 45 -88 30 -159 -61 -310 -90 -147
-128 -270 -128 -405 1 -189 80 -346 261 -515 85 -80 59 -76 -44 6 -211 168
-292 347 -263 579 19 155 57 257 140 381 93 139 99 171 50 269 -16 33 -30 72
-30 87 0 56 71 60 126 7z m4219 7 c104 -36 166 -72 243 -141 75 -69 138 -155
186 -255 52 -108 44 -116 -21 -20 -107 156 -264 291 -405 346 -186 73 -430 73
-618 -1 -35 -14 -135 -64 -222 -111 -229 -125 -315 -147 -405 -103 -39 19
-103 82 -103 101 0 5 25 -6 55 -23 41 -23 73 -33 120 -37 81 -6 110 5 291 105
144 80 286 137 399 159 46 9 126 12 235 10 150 -2 173 -5 245 -30z m-2158
-178 c-22 -54 -48 -177 -49 -232 0 -40 4 -53 24 -68 12 -9 17 -18 11 -18 -21
0 -14 -30 9 -39 14 -5 17 -10 10 -15 -17 -10 -15 -26 3 -26 8 0 15 -9 15 -20
0 -28 94 -117 138 -131 45 -13 132 0 188 29 l37 19 -47 32 c-25 18 -44 36 -41
41 6 9 64 -20 97 -48 15 -12 21 -12 50 6 44 28 158 146 192 200 14 23 33 66
40 95 11 43 14 48 20 29 11 -33 -14 -127 -48 -185 -55 -91 -249 -245 -340
-269 -57 -15 -70 -42 -64 -136 4 -78 36 -153 93 -220 20 -23 33 -42 28 -42
-18 0 -99 58 -127 91 -61 71 -77 145 -64 278 3 20 -4 26 -40 39 -26 8 -69 38
-107 74 l-64 59 -31 -16 c-58 -30 -49 0 10 35 25 15 -2 45 -44 48 -44 4 -47
17 -5 26 21 4 30 11 27 22 -4 21 -21 30 -75 44 -24 6 -43 15 -43 21 0 7 15 8
43 4 23 -4 46 -8 51 -9 5 0 11 21 13 49 2 27 8 67 14 88 14 52 78 191 85 185
3 -3 -1 -21 -9 -40z m2076 16 c65 -17 191 -76 203 -95 5 -8 1 -10 -12 -6 -140
45 -164 49 -264 50 -89 1 -113 -2 -157 -22 -100 -45 -172 -152 -181 -270 -14
-204 109 -404 326 -530 51 -29 91 -55 89 -57 -7 -7 -112 28 -167 56 -80 40
-170 111 -211 167 -107 142 -145 317 -98 455 69 206 259 307 472 252z m-1992
-155 c16 -17 26 -35 23 -40 -9 -15 -73 -10 -99 7 -31 20 -32 42 -2 54 36 14
48 12 78 -21z m343 15 c48 -18 -19 -70 -87 -67 -27 0 -51 4 -55 8 -4 4 8 20
26 36 32 29 78 38 116 23z m81 -186 c-44 -26 -202 -51 -179 -29 14 14 114 39
159 40 35 0 38 -1 20 -11z m-287 -4 c32 -9 27 -32 -14 -71 -34 -31 -36 -37
-30 -76 5 -38 2 -35 -39 46 -25 49 -43 93 -40 98 7 10 88 12 123 3z m-1040
-95 c-7 -41 -12 -161 -13 -269 0 -172 3 -206 23 -287 l24 -92 36 -7 c110 -18
162 -65 162 -146 0 -66 -53 -98 -111 -68 -14 8 -25 6 -44 -6 -32 -21 -89 -21
-121 1 -19 12 -32 14 -52 7 -37 -13 -68 1 -88 40 l-17 33 -9 -27 c-12 -36 -28
-35 -53 4 -11 18 -40 46 -63 63 -42 28 -49 30 -135 29 -78 -1 -200 -18 -297
-41 -22 -6 -23 -4 -12 10 7 8 48 28 90 44 69 25 90 28 202 28 119 0 127 -1
173 -28 27 -16 51 -35 54 -43 6 -17 35 -18 50 -3 16 16 30 4 38 -31 9 -40 38
-55 75 -40 24 10 33 9 52 -4 31 -22 70 -20 102 5 24 19 27 19 48 5 31 -22 55
-20 68 5 28 51 -10 91 -113 119 -46 12 -65 23 -74 41 -22 44 -62 199 -75 284
-10 73 -10 97 6 176 14 75 42 179 72 268 12 36 13 -4 2 -70z m-473 26 c33 -21
57 -47 79 -85 30 -53 31 -60 31 -170 0 -109 -2 -119 -32 -182 -20 -43 -57 -93
-104 -142 -84 -89 -110 -101 -45 -21 97 119 140 257 119 380 -16 91 -44 145
-95 178 -37 24 -51 27 -123 27 -75 0 -127 -13 -229 -55 -35 -15 -7 13 42 42
82 49 139 64 228 61 70 -3 87 -7 129 -33z m1723 -11 c55 -9 26 -27 -32 -20
-69 9 -97 17 -92 25 5 7 65 4 124 -5z m2271 -208 c2 -195 -66 -329 -225 -442
-154 -110 -313 -149 -644 -160 -230 -8 -298 3 -545 85 -231 77 -343 98 -440
81 -138 -25 -410 -153 -513 -242 -18 -15 -37 -28 -42 -28 -5 0 0 32 11 71 58
209 188 350 389 420 56 20 85 23 200 22 123 0 152 -4 315 -42 535 -125 734
-152 887 -120 85 18 202 84 274 155 67 67 87 71 32 7 -64 -74 -136 -125 -228
-161 -109 -42 -140 -47 -310 -46 -159 2 -173 4 -365 48 -409 95 -483 108 -596
108 -160 -1 -265 -40 -392 -145 -63 -52 -158 -179 -144 -193 2 -3 31 13 63 34
78 52 161 93 259 128 74 26 91 29 220 29 l140 0 175 -56 c363 -117 510 -137
770 -105 215 27 443 121 549 226 96 95 140 213 142 378 1 114 17 70 18 -52z
m-3823 -631 c26 -17 32 -53 12 -73 -13 -13 -192 -15 -288 -3 -48 6 -39 7 70
13 69 3 133 9 143 13 23 9 22 28 -3 50 -11 10 -20 22 -20 26 0 10 57 -7 86
-26z"/>
<path d="M7559 5799 c-270 -26 -457 -166 -529 -394 -32 -99 -39 -318 -16 -436
46 -226 174 -368 388 -426 81 -23 326 -25 408 -4 72 18 148 52 204 90 25 17
47 28 49 24 2 -5 12 -32 21 -60 l18 -53 104 0 104 0 0 345 0 345 -335 0 -335
0 0 -125 0 -125 144 0 145 0 -9 -32 c-12 -42 -77 -101 -128 -116 -54 -17 -158
-15 -219 3 -66 20 -126 79 -149 148 -21 62 -25 277 -6 343 33 114 127 177 267
178 129 1 217 -52 239 -146 l6 -28 185 0 c109 0 186 4 190 10 10 17 -16 132
-41 183 -48 94 -141 175 -259 224 -106 45 -295 67 -446 52z"/>
<path d="M11302 5636 c-7 -19 -36 -56 -65 -82 l-52 -46 -90 6 c-106 8 -262 -8
-350 -35 -142 -43 -215 -131 -215 -257 0 -83 25 -136 91 -196 27 -24 49 -46
49 -49 0 -3 -10 -7 -23 -11 -40 -10 -106 -64 -127 -105 -38 -75 -19 -171 43
-230 l26 -23 -47 -32 c-86 -57 -124 -173 -87 -262 14 -34 13 -38 -20 -103 -67
-133 -89 -229 -135 -572 -45 -331 -85 -474 -155 -557 -28 -34 -92 -72 -120
-72 -8 0 -15 -4 -15 -10 0 -13 56 -1 101 21 79 40 141 145 184 313 14 54 41
207 60 341 20 134 44 277 54 317 20 78 79 238 88 238 3 0 17 -9 33 -20 15 -11
39 -24 53 -29 l25 -10 -43 -88 c-86 -173 -115 -330 -115 -617 0 -167 -14 -253
-55 -345 -46 -102 -144 -178 -252 -196 -49 -8 -90 10 -145 63 -32 30 -38 33
-44 19 -9 -24 14 -73 43 -92 19 -13 38 -15 90 -9 l66 7 -5 -60 c-9 -90 -60
-181 -129 -229 -54 -37 -115 -52 -262 -64 -140 -12 -228 -35 -337 -90 -72 -37
-77 -37 -55 -4 l17 26 -55 -7 c-30 -4 -75 -4 -99 0 l-43 8 50 17 c89 31 175
84 175 108 0 23 -27 30 -94 25 l-71 -5 62 31 c80 38 134 95 203 211 76 127
119 173 197 212 87 43 171 45 253 5 30 -14 56 -25 57 -23 11 11 -76 68 -123
82 -73 21 -144 12 -223 -27 -76 -38 -133 -100 -205 -223 -32 -55 -76 -119 -98
-142 -42 -46 -137 -99 -194 -110 -19 -3 -37 -10 -39 -15 -7 -10 52 -27 125
-36 l55 -6 -42 -18 c-63 -27 -155 -42 -222 -37 l-61 4 56 -37 c72 -47 126 -62
211 -57 l68 3 -68 -58 c-38 -33 -67 -61 -64 -63 2 -2 89 31 193 73 196 79 230
87 463 112 115 12 184 43 240 108 52 59 81 136 81 217 l0 63 38 6 c56 9 142
66 184 122 76 100 107 231 108 455 1 259 31 413 113 580 l42 85 335 6 c312 5
339 7 395 27 83 31 152 86 189 152 29 51 31 62 31 150 0 109 -18 162 -76 219
-69 70 -94 75 -380 81 -236 5 -259 7 -278 24 -12 11 -21 29 -19 40 5 36 44 46
178 46 189 1 305 31 385 101 107 95 115 272 16 378 -17 19 -30 35 -29 35 2 1
33 17 70 35 90 43 138 110 138 192 l0 29 -148 0 -148 0 -12 -34z m-230 -316
c52 -15 78 -52 78 -109 0 -55 -20 -88 -66 -107 -66 -28 -155 -10 -188 37 -19
28 -21 87 -4 125 14 29 77 63 118 64 14 0 42 -5 62 -10z m137 -795 c33 -16 41
-33 41 -80 0 -25 -8 -40 -31 -60 l-32 -26 -179 3 -180 3 -24 28 c-37 43 -27
113 20 135 35 17 351 15 385 -3z"/>
<path d="M8925 5510 c-288 -36 -435 -202 -435 -490 0 -221 73 -356 237 -439
130 -65 363 -80 515 -32 140 45 254 155 294 284 39 128 27 317 -28 434 -29 64
-120 153 -188 186 -104 50 -266 74 -395 57z m202 -266 c15 -11 38 -40 51 -65
21 -41 23 -54 20 -174 -3 -101 -8 -137 -21 -163 -47 -86 -195 -109 -272 -40
-48 41 -60 85 -60 218 0 103 3 120 25 164 34 68 74 88 162 84 48 -3 75 -10 95
-24z"/>
<path d="M10245 5510 c-77 -20 -142 -66 -172 -124 l-17 -31 -8 45 c-19 101 0
90 -163 90 l-145 0 0 -475 0 -475 180 0 179 0 3 263 c3 243 5 265 24 302 33
62 86 85 201 85 l93 0 0 155 0 154 -37 10 c-43 12 -94 13 -138 1z"/>
<path d="M12136 5510 c-318 -39 -480 -271 -425 -610 28 -174 124 -283 305
-347 74 -26 90 -28 244 -28 132 0 177 4 225 18 170 53 262 143 283 280 5 31 7
59 4 62 -3 3 -81 5 -173 5 l-167 0 -7 -30 c-9 -40 -42 -80 -81 -96 -52 -22
-142 -18 -194 9 -53 26 -79 67 -87 136 l-6 51 363 0 362 0 -6 83 c-17 216 -83
335 -225 406 -106 54 -272 78 -415 61z m203 -244 c35 -19 61 -57 68 -102 l6
-34 -176 0 -176 0 9 31 c19 64 59 104 123 120 41 10 110 3 146 -15z"/>
<path d="M13350 5510 c-138 -17 -223 -54 -305 -131 -102 -96 -140 -211 -132
-394 11 -255 132 -399 379 -451 99 -22 278 -14 370 15 137 44 241 139 287 264
29 76 40 252 22 339 -37 175 -178 311 -361 346 -83 16 -187 21 -260 12z m191
-262 c64 -35 79 -80 79 -229 0 -110 -3 -130 -22 -169 -31 -60 -76 -85 -153
-85 -77 0 -122 25 -153 85 -21 42 -23 55 -20 182 3 151 10 169 78 216 45 31
137 31 191 0z"/>
<path d="M15700 5510 c-245 -31 -360 -129 -360 -308 0 -84 17 -132 63 -180 61
-64 130 -89 371 -136 139 -27 176 -44 176 -79 0 -49 -40 -70 -135 -71 -91 -1
-145 23 -161 74 l-12 35 -166 3 c-189 3 -179 8 -151 -85 47 -158 256 -253 530
-240 296 13 436 119 437 327 1 171 -89 250 -332 294 -203 37 -244 47 -262 63
-46 41 -4 85 86 91 78 5 133 -17 148 -60 l10 -28 164 0 164 0 0 33 c0 45 -41
128 -80 160 -102 86 -305 131 -490 107z"/>
<path d="M14152 5128 c4 -346 5 -366 26 -418 30 -76 73 -124 140 -157 52 -26
67 -28 167 -28 103 0 114 2 177 32 37 17 90 52 117 78 l49 46 7 -57 c11 -90 0
-84 161 -84 l144 0 0 475 0 475 -180 0 -180 0 0 -302 c0 -283 -1 -305 -20
-335 -38 -64 -142 -88 -198 -46 -47 35 -51 64 -51 386 l-1 297 -181 0 -181 0
4 -362z"/>
<path d="M14130 3260 l0 -120 180 0 180 0 0 120 0 120 -180 0 -180 0 0 -120z"/>
<path d="M14740 2725 l0 -655 180 0 180 0 0 655 0 655 -180 0 -180 0 0 -655z"/>
<path d="M11540 3155 l0 -155 205 0 205 0 0 -465 0 -465 200 0 200 0 0 465 0
465 205 0 205 0 0 155 0 155 -610 0 -610 0 0 -155z"/>
<path d="M13263 3040 c-220 -25 -360 -121 -371 -255 l-4 -55 175 0 c166 0 176
1 182 20 10 31 51 57 99 64 97 15 176 -37 176 -113 l0 -38 -52 -7 c-29 -3 -80
-6 -113 -6 -181 0 -353 -53 -427 -131 -103 -108 -87 -337 30 -414 76 -50 241
-70 364 -44 61 13 162 57 197 86 l24 20 34 -38 c51 -57 107 -74 238 -74 66 0
125 5 148 13 l37 14 0 104 0 104 -40 0 c-27 0 -47 7 -60 20 -19 19 -20 33 -20
243 0 261 -8 305 -69 366 -96 96 -326 146 -548 121z m257 -611 c0 -58 -2 -64
-38 -99 -88 -89 -262 -70 -262 28 0 63 69 107 190 122 120 14 110 18 110 -51z"/>
<path d="M15660 3040 c-194 -24 -310 -97 -345 -214 -31 -103 -15 -204 42 -267
56 -62 136 -94 331 -133 192 -38 222 -51 222 -96 0 -43 -45 -64 -135 -64 -99
0 -164 36 -165 92 0 22 0 22 -171 22 l-171 0 7 -42 c32 -190 239 -300 540
-285 189 9 299 48 372 131 49 55 68 117 67 211 0 86 -28 143 -91 191 -61 47
-136 71 -302 100 -159 27 -214 47 -219 80 -5 35 32 58 101 62 81 5 134 -16
150 -58 l11 -30 163 0 163 0 0 35 c0 110 -104 208 -266 249 -75 19 -220 27
-304 16z"/>
<path d="M9696 3009 c-23 -18 -56 -67 -56 -84 0 -3 29 18 65 47 36 28 65 53
65 55 0 12 -52 -1 -74 -18z"/>
<path d="M14130 2545 l0 -475 180 0 180 0 0 475 0 475 -180 0 -180 0 0 -475z"/>
<path d="M9789 2951 c-13 -11 -21 -22 -18 -26 10 -9 110 26 103 36 -9 16 -61
10 -85 -10z"/>
<path d="M9823 2869 c-33 -9 -103 -71 -87 -76 5 -2 42 14 83 36 53 28 68 40
56 45 -9 3 -17 6 -18 5 -1 0 -16 -5 -34 -10z"/>
<path d="M9663 2823 c-44 -49 -51 -63 -32 -63 17 0 89 76 89 94 0 25 -10 20
-57 -31z"/>
<path d="M9541 2819 c-41 -42 -50 -59 -30 -59 17 0 79 66 79 84 0 22 -3 21
-49 -25z"/>
<path d="M9922 2815 c-30 -25 -43 -55 -24 -55 5 0 21 13 36 29 39 40 29 61
-12 26z"/>
<path d="M9985 2743 c-10 -16 -39 -48 -64 -72 -45 -43 -45 -44 -16 -37 40 9
105 78 105 111 0 32 -4 31 -25 -2z"/>
<path d="M9595 2712 c-62 -30 -64 -48 -2 -31 41 11 102 58 77 59 -8 0 -42 -13
-75 -28z"/>
<path d="M9444 2712 c-12 -2 -30 -12 -40 -23 -16 -18 -16 -19 8 -19 27 0 78
34 62 41 -5 3 -19 3 -30 1z"/>
<path d="M9764 2691 c-49 -22 -64 -41 -34 -41 29 0 82 24 99 43 12 15 11 17
-5 17 -11 0 -38 -9 -60 -19z"/>
<path d="M9485 2606 c-49 -23 -89 -56 -66 -56 21 0 140 52 152 66 19 23 -28
18 -86 -10z"/>
</g>
</svg>
